<svg version="1.2" xmlns="http://www.w3.org/2000/svg" viewBox="0 0 1551 1441" width="1551" height="1441"><style>.a{fill:#0766ff}</style><path fill-rule="evenodd" class="a" d="m1394.6 41.9h155.8v1357.4h-425v-200.4c-73 152.9-82.9 242.1-455.8 242.1-372.9 0-668.9-294.8-668.9-720.4 0-425.7 297.7-720.4 697.9-720.4 201.5 0 349.7 81 434.3 222.9 34.7-118.7 126.8-181.2 261.7-181.2zm-284.9 680.4c0-206.1-140.1-351.5-334.1-351.5-194.6 0-329 145.4-329 351.5 0 206.2 134.4 351.5 329 351.5 199.8 0 334.1-145.3 334.1-351.5z"/></svg>