<svg width="200" height="200" version="1.1" xmlns="http://www.w3.org/2000/svg" desc="Created with imagetracer.js version 1.2.6" ><path fill="rgb(121,21,250)" stroke="rgb(121,21,250)" stroke-width="1" opacity="1" d="M 113.5 73 L 114.5 75 L 113.5 73 Z " /><path fill="rgb(121,21,250)" stroke="rgb(121,21,250)" stroke-width="1" opacity="1" d="M 114.5 78 L 115 79.5 L 114.5 81 L 121 81.5 L 114 82 L 113.5 114 L 113 82.5 L 112 81.5 L 114.5 78 Z " /><path fill="rgb(121,21,250)" stroke="rgb(121,21,250)" stroke-width="1" opacity="1" d="M 103.5 79 L 108 82.5 L 106.5 83 L 103.5 79 Z " /><path fill="rgb(121,21,250)" stroke="rgb(121,21,250)" stroke-width="1" opacity="1" d="M 27.5 81 L 34 81.5 L 27.5 82 L 27.5 81 Z " /><path fill="rgb(121,21,250)" stroke="rgb(121,21,250)" stroke-width="1" opacity="1" d="M 56.5 81 L 62 81.5 L 56.5 82 L 56.5 81 Z " /><path fill="rgb(121,21,250)" stroke="rgb(121,21,250)" stroke-width="1" opacity="1" d="M 91.5 81 L 99 81.5 L 91.5 82 L 91.5 81 Z " /><path fill="rgb(121,21,250)" stroke="rgb(121,21,250)" stroke-width="1" opacity="1" d="M 127.5 81 L 134 81.5 L 127.5 82 L 127.5 81 Z " /><path fill="rgb(121,21,250)" stroke="rgb(121,21,250)" stroke-width="1" opacity="1" d="M 162.5 81 L 169 81.5 L 162.5 82 L 162.5 81 Z " /><path fill="rgb(121,21,250)" stroke="rgb(121,21,250)" stroke-width="1" opacity="1" d="M 175.5 81 L 182 81.5 L 175 82 L 174.5 85 L 174 82.5 L 175.5 81 Z " /><path fill="rgb(121,21,250)" stroke="rgb(121,21,250)" stroke-width="1" opacity="1" d="M 52.5 82 L 54 82.5 L 43 90.5 L 44 92.5 L 43 92.5 L 42 90.5 L 52.5 82 Z " /><path fill="rgb(121,21,250)" stroke="rgb(121,21,250)" stroke-width="1" opacity="1" d="M 124.5 82 L 126 82.5 L 122.5 84 L 122.5 83 L 124.5 82 Z " /><path fill="rgb(121,21,250)" stroke="rgb(121,21,250)" stroke-width="1" opacity="1" d="M 170.5 82 L 173 83.5 L 171.5 83 L 170.5 82 Z " /><path fill="rgb(121,21,250)" stroke="rgb(121,21,250)" stroke-width="1" opacity="1" d="M 38.5 83 L 39.5 85 L 38.5 83 Z " /><path fill="rgb(121,21,250)" stroke="rgb(121,21,250)" stroke-width="1" opacity="1" d="M 103.5 83 L 108.5 89 L 103.5 83 Z " /><path fill="rgb(121,21,250)" stroke="rgb(121,21,250)" stroke-width="1" opacity="1" d="M 157.5 83 L 152 89.5 L 150.5 93 L 150 91.5 L 157.5 83 Z " /><path fill="rgb(121,21,250)" stroke="rgb(121,21,250)" stroke-width="1" opacity="1" d="M 20.5 84 L 16.5 89 L 20.5 84 Z " /><path fill="rgb(121,21,250)" stroke="rgb(121,21,250)" stroke-width="1" opacity="1" d="M 68.5 84 Q 73.6 86.4 75 92.5 L 74 92.5 L 68.5 84 Z " /><path fill="rgb(121,21,250)" stroke="rgb(121,21,250)" stroke-width="1" opacity="1" d="M 84.5 84 L 80.5 89 L 84.5 84 Z " /><path fill="rgb(121,21,250)" stroke="rgb(121,21,250)" stroke-width="1" opacity="1" d="M 140.5 84 L 143.5 88 L 140.5 84 Z " /><path fill="rgb(121,21,250)" stroke="rgb(121,21,250)" stroke-width="1" opacity="1" d="M 41.5 85 L 43.5 88 L 41.5 85 Z " /><path fill="rgb(121,21,250)" stroke="rgb(121,21,250)" stroke-width="1" opacity="1" d="M 144.5 89 L 147 94.5 L 146 94.5 L 144.5 89 Z " /><path fill="rgb(121,21,250)" stroke="rgb(121,21,250)" stroke-width="1" opacity="1" d="M 61.5 90 L 64 91.5 L 62.5 91 L 61.5 90 Z " /><path fill="rgb(121,21,250)" stroke="rgb(121,21,250)" stroke-width="1" opacity="1" d="M 90.5 90 L 92 90.5 L 89.5 92 L 90.5 90 Z " /><path fill="rgb(121,21,250)" stroke="rgb(121,21,250)" stroke-width="1" opacity="1" d="M 97.5 90 L 100 91.5 L 98.5 91 L 97.5 90 Z " /><path fill="rgb(121,21,250)" stroke="rgb(121,21,250)" stroke-width="1" opacity="1" d="M 25.5 91 L 23.5 94 L 25.5 91 Z " /><path fill="rgb(121,21,250)" stroke="rgb(121,21,250)" stroke-width="1" opacity="1" d="M 35.5 91 L 38.5 93 L 41 91.5 L 37.5 94 L 35.5 91 Z " /><path fill="rgb(121,21,250)" stroke="rgb(121,21,250)" stroke-width="1" opacity="1" d="M 53.5 91 L 52.5 93 L 53.5 91 Z " /><path fill="rgb(121,21,250)" stroke="rgb(121,21,250)" stroke-width="1" opacity="1" d="M 124.5 91 L 123.5 93 L 124.5 91 Z " /><path fill="rgb(121,21,250)" stroke="rgb(121,21,250)" stroke-width="1" opacity="1" d="M 135.5 91 L 138 94.5 L 137 94.5 L 135.5 91 Z " /><path fill="rgb(121,21,250)" stroke="rgb(121,21,250)" stroke-width="1" opacity="1" d="M 160.5 91 L 159.5 93 L 160.5 91 Z " /><path fill="rgb(121,21,250)" stroke="rgb(121,21,250)" stroke-width="1" opacity="1" d="M 171.5 91 L 172.5 93 L 171.5 91 Z " /><path fill="rgb(121,21,250)" stroke="rgb(121,21,250)" stroke-width="1" opacity="1" d="M 78.5 92 L 79 94.5 L 78 94.5 L 78.5 92 Z " /><path fill="rgb(121,21,250)" stroke="rgb(121,21,250)" stroke-width="1" opacity="1" d="M 65.5 93 L 67 95.5 L 66 95.5 L 65.5 93 Z " /><path fill="rgb(121,21,250)" stroke="rgb(121,21,250)" stroke-width="1" opacity="1" d="M 101.5 93 L 103 96.5 L 102 96.5 L 101.5 93 Z " /><path fill="rgb(121,21,250)" stroke="rgb(121,21,250)" stroke-width="1" opacity="1" d="M 42.5 94 L 43 96.5 L 42 96.5 L 42.5 94 Z " /><path fill="rgb(121,21,250)" stroke="rgb(121,21,250)" stroke-width="1" opacity="1" d="M 75.5 94 L 76 101.5 L 75 101.5 L 75.5 94 Z " /><path fill="rgb(121,21,250)" stroke="rgb(121,21,250)" stroke-width="1" opacity="1" d="M 149.5 94 L 150 101.5 L 149 101.5 L 149.5 94 Z " /><path fill="rgb(121,21,250)" stroke="rgb(121,21,250)" stroke-width="1" opacity="1" d="M 86.5 95 L 87 100.5 L 86 100.5 L 86.5 95 Z " /><path fill="rgb(121,21,250)" stroke="rgb(121,21,250)" stroke-width="1" opacity="1" d="M 13.5 96 L 14 100.5 L 13 100.5 L 13.5 96 Z " /><path fill="rgb(121,21,250)" stroke="rgb(121,21,250)" stroke-width="1" opacity="1" d="M 111.5 96 L 112 101.5 L 111 101.5 L 111.5 96 Z " /><path fill="rgb(121,21,250)" stroke="rgb(121,21,250)" stroke-width="1" opacity="1" d="M 138.5 96 L 139 113.5 L 138 113.5 L 138.5 96 Z " /><path fill="rgb(121,21,250)" stroke="rgb(121,21,250)" stroke-width="1" opacity="1" d="M 50.5 97 L 51 99.5 L 50 99.5 L 50.5 97 Z " /><path fill="rgb(121,21,250)" stroke="rgb(121,21,250)" stroke-width="1" opacity="1" d="M 174.5 97 L 175 99.5 L 174 99.5 L 174.5 97 Z " /><path fill="rgb(121,21,250)" stroke="rgb(121,21,250)" stroke-width="1" opacity="1" d="M 22.5 99 L 25 104.5 L 23 103.5 L 22.5 99 Z " /><path fill="rgb(121,21,250)" stroke="rgb(121,21,250)" stroke-width="1" opacity="1" d="M 42.5 100 L 43 102.5 L 42 102.5 L 42.5 100 Z " /><path fill="rgb(121,21,250)" stroke="rgb(121,21,250)" stroke-width="1" opacity="1" d="M 51.5 101 L 54.5 105 L 56 105.5 L 54.5 106 L 51 102.5 L 51.5 101 Z " /><path fill="rgb(121,21,250)" stroke="rgb(121,21,250)" stroke-width="1" opacity="1" d="M 158.5 101 L 162 105.5 L 158 102.5 L 158.5 101 Z " /><path fill="rgb(121,21,250)" stroke="rgb(121,21,250)" stroke-width="1" opacity="1" d="M 173.5 101 L 174 102.5 L 169.5 106 L 169.5 105 L 173 102.5 L 173.5 101 Z " /><path fill="rgb(121,21,250)" stroke="rgb(121,21,250)" stroke-width="1" opacity="1" d="M 37.5 103 L 35.5 106 L 34 105.5 L 37.5 103 Z " /><path fill="rgb(121,21,250)" stroke="rgb(121,21,250)" stroke-width="1" opacity="1" d="M 39.5 103 L 42.5 107 L 39.5 103 Z " /><path fill="rgb(121,21,250)" stroke="rgb(121,21,250)" stroke-width="1" opacity="1" d="M 65.5 103 L 63.5 106 L 62 105.5 L 65.5 103 Z " /><path fill="rgb(121,21,250)" stroke="rgb(121,21,250)" stroke-width="1" opacity="1" d="M 101.5 103 L 99.5 106 L 98 105.5 L 101.5 103 Z " /><path fill="rgb(121,21,250)" stroke="rgb(121,21,250)" stroke-width="1" opacity="1" d="M 79.5 105 L 81 107.5 L 79 106.5 L 79.5 105 Z " /><path fill="rgb(121,21,250)" stroke="rgb(121,21,250)" stroke-width="1" opacity="1" d="M 28.5 106 L 33 106.5 L 28.5 107 L 28.5 106 Z " /><path fill="rgb(121,21,250)" stroke="rgb(121,21,250)" stroke-width="1" opacity="1" d="M 57.5 106 L 61 106.5 L 57.5 107 L 57.5 106 Z " /><path fill="rgb(121,21,250)" stroke="rgb(121,21,250)" stroke-width="1" opacity="1" d="M 73.5 106 L 72.5 108 L 73.5 106 Z " /><path fill="rgb(121,21,250)" stroke="rgb(121,21,250)" stroke-width="1" opacity="1" d="M 92.5 106 L 97 106.5 L 92.5 107 L 92.5 106 Z " /><path fill="rgb(121,21,250)" stroke="rgb(121,21,250)" stroke-width="1" opacity="1" d="M 164.5 106 L 168 106.5 L 164.5 107 L 164.5 106 Z " /><path fill="rgb(121,21,250)" stroke="rgb(121,21,250)" stroke-width="1" opacity="1" d="M 16.5 107 L 21.5 113 L 16.5 107 Z " /><path fill="rgb(121,21,250)" stroke="rgb(121,21,250)" stroke-width="1" opacity="1" d="M 43.5 108 L 39.5 113 L 36.5 114 L 36.5 113 L 43.5 108 Z " /><path fill="rgb(121,21,250)" stroke="rgb(121,21,250)" stroke-width="1" opacity="1" d="M 45.5 108 L 48.5 112 L 45.5 108 Z " /><path fill="rgb(121,21,250)" stroke="rgb(121,21,250)" stroke-width="1" opacity="1" d="M 152.5 108 L 156.5 113 L 152.5 108 Z " /><path fill="rgb(121,21,250)" stroke="rgb(121,21,250)" stroke-width="1" opacity="1" d="M 71.5 109 L 70.5 111 L 71.5 109 Z " /><path fill="rgb(121,21,250)" stroke="rgb(121,21,250)" stroke-width="1" opacity="1" d="M 81.5 109 L 83.5 112 L 81.5 109 Z " /><path fill="rgb(121,21,250)" stroke="rgb(121,21,250)" stroke-width="1" opacity="1" d="M 105.5 109 L 104.5 111 L 105.5 109 Z " /><path fill="rgb(121,21,250)" stroke="rgb(121,21,250)" stroke-width="1" opacity="1" d="M 106.5 111 L 109.5 115 L 106.5 111 Z " /><path fill="rgb(121,21,250)" stroke="rgb(121,21,250)" stroke-width="1" opacity="1" d="M 174.5 111 L 175 113.5 L 173 112.5 L 174.5 111 Z " /><path fill="rgb(121,21,250)" stroke="rgb(121,21,250)" stroke-width="1" opacity="1" d="M 25.5 114 L 28 114.5 L 25.5 115 L 25.5 114 Z " /><path fill="rgb(121,21,250)" stroke="rgb(121,21,250)" stroke-width="1" opacity="1" d="M 54.5 114 L 57 114.5 L 54.5 115 L 54.5 114 Z " /><path fill="rgb(121,21,250)" stroke="rgb(121,21,250)" stroke-width="1" opacity="1" d="M 61.5 114 L 64 114.5 L 61.5 115 L 61.5 114 Z " /><path fill="rgb(121,21,250)" stroke="rgb(121,21,250)" stroke-width="1" opacity="1" d="M 89.5 114 L 92 114.5 L 89.5 115 L 89.5 114 Z " /><path fill="rgb(121,21,250)" stroke="rgb(121,21,250)" stroke-width="1" opacity="1" d="M 160.5 114 L 163 114.5 L 160.5 115 L 160.5 114 Z " /><path fill="rgb(121,21,250)" stroke="rgb(121,21,250)" stroke-width="1" opacity="1" d="M 167.5 114 L 170 114.5 L 167.5 115 L 167.5 114 Z " /><path fill="rgb(121,21,250)" stroke="rgb(121,21,250)" stroke-width="1" opacity="1" d="M 98.5 115 L 101 116.5 L 99.5 116 L 98.5 115 Z " /><path fill="rgb(121,21,250)" stroke="rgb(121,21,250)" stroke-width="1" opacity="1" d="M 79.5 119 L 85 119.5 L 79.5 120 L 79.5 119 Z " /><path fill="rgb(121,21,250)" stroke="rgb(121,21,250)" stroke-width="1" opacity="1" d="M 111.5 119 L 112 122.5 L 111 122.5 L 111.5 119 Z " /><path fill="rgb(121,21,250)" stroke="rgb(121,21,250)" stroke-width="1" opacity="1" d="M 86.5 120 L 88 123.5 L 86 122.5 L 86.5 120 Z " /><path fill="rgb(121,21,250)" stroke="rgb(121,21,250)" stroke-width="1" opacity="1" d="M 102.5 122 L 103 123.5 L 99.5 126 L 99.5 125 L 102 123.5 L 102.5 122 Z " /><path fill="rgb(121,21,250)" stroke="rgb(121,21,250)" stroke-width="1" opacity="1" d="M 79.5 126 L 81 128.5 L 79 127.5 L 79.5 126 Z " /><path fill="rgb(121,21,250)" stroke="rgb(121,21,250)" stroke-width="1" opacity="1" d="M 91.5 126 L 98 126.5 L 91.5 127 L 91.5 126 Z " /><path fill="rgb(121,21,250)" stroke="rgb(121,21,250)" stroke-width="1" opacity="1" d="M 109.5 127 L 109 128.5 L 107.5 131 L 108 129.5 L 109.5 127 Z " /><path fill="rgb(121,21,250)" stroke="rgb(121,21,250)" stroke-width="1" opacity="1" d="M 83.5 131 L 84.5 133 L 83.5 131 Z " /><path fill="rgb(121,21,250)" stroke="rgb(121,21,250)" stroke-width="1" opacity="1" d="M 105.5 131 L 104.5 133 L 105.5 131 Z " /><path fill="rgb(121,21,250)" stroke="rgb(121,21,250)" stroke-width="1" opacity="1" d="M 89.5 134 L 92 134.5 L 89.5 135 L 89.5 134 Z " /><path fill="rgb(121,21,250)" stroke="rgb(121,21,250)" stroke-width="1" opacity="1" d="M 97.5 134 L 100 134.5 L 97.5 135 L 97.5 134 Z " /><path fill="rgb(135,41,254)" stroke="rgb(135,41,254)" stroke-width="1" opacity="1" d="M 1.5 0 L 3 0.5 L 0 2.5 L 1.5 0 Z " /><path fill="rgb(135,41,254)" stroke="rgb(135,41,254)" stroke-width="1" opacity="1" d="M 115.5 74 L 114.5 76 L 115.5 74 Z " /><path fill="rgb(135,41,254)" stroke="rgb(135,41,254)" stroke-width="1" opacity="1" d="M 120.5 79 L 122.5 82 L 119 80.5 L 120.5 79 Z " /><path fill="rgb(135,41,254)" stroke="rgb(135,41,254)" stroke-width="1" opacity="1" d="M 104.5 81 L 106 84 Q 108.7 82.9 108 85.5 L 106.5 85 Q 103.9 85.8 105 82.5 L 104.5 81 Z " /><path fill="rgb(135,41,254)" stroke="rgb(135,41,254)" stroke-width="1" opacity="1" d="M 113.5 81 L 112.5 83 L 113.5 81 Z " /><path fill="rgb(135,41,254)" stroke="rgb(135,41,254)" stroke-width="1" opacity="1" d="M 39.5 82 L 40.5 84 Q 37.7 84.7 39.5 82 Z " /><path fill="rgb(135,41,254)" stroke="rgb(135,41,254)" stroke-width="1" opacity="1" d="M 182.5 82 L 183 114.5 L 182 114.5 L 182.5 82 Z " /><path fill="rgb(135,41,254)" stroke="rgb(135,41,254)" stroke-width="1" opacity="1" d="M 83.5 84 L 81.5 87 L 83.5 84 Z " /><path fill="rgb(135,41,254)" stroke="rgb(135,41,254)" stroke-width="1" opacity="1" d="M 26.5 90 L 27 91.5 L 25 92.5 L 26.5 90 Z " /><path fill="rgb(135,41,254)" stroke="rgb(135,41,254)" stroke-width="1" opacity="1" d="M 41.5 90 L 42.5 92 Q 39.7 92.7 41.5 90 Z " /><path fill="rgb(135,41,254)" stroke="rgb(135,41,254)" stroke-width="1" opacity="1" d="M 129.5 90 L 132 90.5 Q 130 95 128 91.5 L 129.5 90 Z " /><path fill="rgb(135,41,254)" stroke="rgb(135,41,254)" stroke-width="1" opacity="1" d="M 64.5 91 L 65.5 93 L 64.5 91 Z " /><path fill="rgb(135,41,254)" stroke="rgb(135,41,254)" stroke-width="1" opacity="1" d="M 88.5 91 L 91 91.5 Q 88.9 94.8 88.5 91 Z " /><path fill="rgb(135,41,254)" stroke="rgb(135,41,254)" stroke-width="1" opacity="1" d="M 94.5 91 L 95.5 93 Q 92.7 93.7 94.5 91 Z " /><path fill="rgb(135,41,254)" stroke="rgb(135,41,254)" stroke-width="1" opacity="1" d="M 100.5 91 L 101.5 93 L 100.5 91 Z " /><path fill="rgb(135,41,254)" stroke="rgb(135,41,254)" stroke-width="1" opacity="1" d="M 112.5 91 L 111.5 93 L 112.5 91 Z " /><path fill="rgb(135,41,254)" stroke="rgb(135,41,254)" stroke-width="1" opacity="1" d="M 164 91 L 166 91.5 L 164 92.5 L 164 91 Z " /><path fill="rgb(135,41,254)" stroke="rgb(135,41,254)" stroke-width="1" opacity="1" d="M 54.5 92 L 53.5 94 L 52 93.5 L 54.5 92 Z " /><path fill="rgb(135,41,254)" stroke="rgb(135,41,254)" stroke-width="1" opacity="1" d="M 159.5 94 L 160 95.5 L 157.5 100 L 157 97.5 L 159.5 94 Z " /><path fill="rgb(135,41,254)" stroke="rgb(135,41,254)" stroke-width="1" opacity="1" d="M 52.5 95 L 53 97 L 50 96.5 L 52.5 95 Z " /><path fill="rgb(135,41,254)" stroke="rgb(135,41,254)" stroke-width="1" opacity="1" d="M 137 95 L 139 95.5 L 137 96.5 L 137 95 Z " /><path fill="rgb(135,41,254)" stroke="rgb(135,41,254)" stroke-width="1" opacity="1" d="M 42.5 97 L 43 99.5 L 42 99.5 L 42.5 97 Z " /><path fill="rgb(135,41,254)" stroke="rgb(135,41,254)" stroke-width="1" opacity="1" d="M 67.5 97 L 68 99.5 L 66 100.5 L 67.5 97 Z " /><path fill="rgb(135,41,254)" stroke="rgb(135,41,254)" stroke-width="1" opacity="1" d="M 51.5 100 L 52.5 102 L 51.5 100 Z " /><path fill="rgb(135,41,254)" stroke="rgb(135,41,254)" stroke-width="1" opacity="1" d="M 122.5 101 L 123 103.5 L 122 103.5 L 122.5 101 Z " /><path fill="rgb(135,41,254)" stroke="rgb(135,41,254)" stroke-width="1" opacity="1" d="M 101.5 102 L 100.5 104 L 99 103.5 L 101.5 102 Z " /><path fill="rgb(135,41,254)" stroke="rgb(135,41,254)" stroke-width="1" opacity="1" d="M 42.5 103 L 43 105.5 L 42 105.5 L 42.5 103 Z " /><path fill="rgb(135,41,254)" stroke="rgb(135,41,254)" stroke-width="1" opacity="1" d="M 74.5 105 L 75 108 Q 72.3 106.9 73 109.5 L 70 115 L 68 114.5 L 69 112.5 L 68.5 111 L 72 109.5 L 74.5 105 Z " /><path fill="rgb(135,41,254)" stroke="rgb(135,41,254)" stroke-width="1" opacity="1" d="M 110 105 Q 112.7 103.9 112 106.5 L 109 108.5 L 110 105 Z " /><path fill="rgb(135,41,254)" stroke="rgb(135,41,254)" stroke-width="1" opacity="1" d="M 122.5 106 L 123 108.5 L 122 108.5 L 122.5 106 Z " /><path fill="rgb(135,41,254)" stroke="rgb(135,41,254)" stroke-width="1" opacity="1" d="M 106.5 108 L 108.5 112 Q 109.8 109.7 111 112.5 L 108.5 113 L 106.5 111 L 105 110.5 L 107 109.5 L 106.5 108 Z " /><path fill="rgb(135,41,254)" stroke="rgb(135,41,254)" stroke-width="1" opacity="1" d="M 81.5 110 L 82.5 112 L 81.5 110 Z " /><path fill="rgb(135,41,254)" stroke="rgb(135,41,254)" stroke-width="1" opacity="1" d="M 122.5 111 L 123.5 114 L 124.5 112 L 125 115 L 121 114.5 L 122.5 111 Z " /><path fill="rgb(135,41,254)" stroke="rgb(135,41,254)" stroke-width="1" opacity="1" d="M 173.5 113 L 175 115.5 L 174 115.5 L 173.5 113 Z " /><path fill="rgb(135,41,254)" stroke="rgb(135,41,254)" stroke-width="1" opacity="1" d="M 83.5 118 Q 86.8 116.9 86 119.5 L 84.5 119 L 83.5 118 Z " /><path fill="rgb(135,41,254)" stroke="rgb(135,41,254)" stroke-width="1" opacity="1" d="M 77.5 121 L 78.5 123 Q 75.7 123.7 77.5 121 Z " /><path fill="rgb(135,41,254)" stroke="rgb(135,41,254)" stroke-width="1" opacity="1" d="M 81.5 129 L 82.5 131 L 81.5 129 Z " /><path fill="rgb(135,41,254)" stroke="rgb(135,41,254)" stroke-width="1" opacity="1" d="M 106.5 130 L 109 130.5 Q 106.9 133.8 106.5 130 Z " /><path fill="rgb(135,41,254)" stroke="rgb(135,41,254)" stroke-width="1" opacity="1" d="M 83.5 132 L 86 133 L 85.5 135 L 83.5 132 Z " /><path fill="rgb(135,41,254)" stroke="rgb(135,41,254)" stroke-width="1" opacity="1" d="M 103.5 132 Q 108 134 104.5 136 L 103.5 132 Z " /><path fill="rgb(135,41,254)" stroke="rgb(135,41,254)" stroke-width="1" opacity="1" d="M 92.5 134 L 97 134.5 L 92.5 135 L 92.5 134 Z " /><path fill="rgb(135,41,255)" stroke="rgb(135,41,255)" stroke-width="1" opacity="1" d="M 3.5 0 L 200 0 L 200 200 L 0 200 L 0 3.5 L 3.5 0 Z M 109 70 L 108 71 Q 103 69 104 74 Q 100 75 103 77 L 102 79 L 105 83 L 105 84 L 99 81 L 92 81 L 84 84 L 78 92 L 78 101 L 77 102 L 78 104 L 78 106 L 81 111 L 89 114 Q 90 117 92 115 L 98 115 Q 99 118 102 117 L 103 121 L 102 124 L 99 126 Q 91 127 88 125 L 86 118 L 78 119 L 77 122 Q 78 129 83 133 Q 85 137 87 134 L 90 135 Q 99 137 104 133 L 104 136 L 106 135 L 105 133 Q 106 130 108 132 L 110 127 Q 113 125 111 124 L 112 120 L 110 116 L 111 115 L 109 114 L 106 110 L 108 110 L 110 106 L 110 108 L 112 107 Q 113 104 111 105 L 112 103 Q 114 97 111 96 L 112 93 L 110 92 L 106 86 L 108 86 L 108 84 L 106 84 L 112 82 Q 115 84 113 91 L 113 93 L 113 113 L 112 114 L 115 115 L 125 115 L 125 112 L 124 114 L 122 111 L 123 109 L 122 106 L 123 104 L 122 100 L 122 98 L 123 94 L 129 90 L 130 93 Q 130 90 135 91 L 137 94 L 138 98 L 138 115 L 148 115 L 147 114 L 147 96 L 148 95 L 144 88 Q 140 83 134 81 Q 126 80 123 83 L 123 82 Q 121 77 119 81 L 114 81 L 116 75 L 115 74 L 113 71 L 109 70 Z M 28 81 L 27 82 Q 21 80 22 84 L 17 86 L 16 89 Q 17 91 15 90 L 15 92 L 13 97 L 13 101 L 16 108 Q 19 113 26 115 Q 37 116 42 112 L 44 109 L 43 107 L 44 105 L 46 111 L 56 116 Q 57 113 64 115 L 68 113 L 69 113 L 68 115 L 70 115 L 73 110 Q 72 107 75 108 L 76 102 L 75 91 Q 71 83 62 81 L 52 82 L 45 89 L 44 88 L 41 85 L 41 84 Q 40 81 39 83 Q 35 80 28 81 Z M 163 81 L 159 83 Q 155 82 156 85 L 152 87 L 149 95 L 149 102 L 154 112 L 161 115 L 170 115 L 172 115 L 173 113 L 174 116 L 176 115 L 183 115 L 183 115 L 183 83 Q 182 80 176 81 L 174 84 L 173 82 L 163 81 Z " /><path fill="rgb(135,41,255)" stroke="rgb(135,41,255)" stroke-width="1" opacity="1" d="M 28.5 90 L 35 91 Q 33.9 93.7 36.5 93 L 38.5 94 Q 39.6 91.3 43 92 L 42 94.5 L 41.5 105 L 37.5 103 Q 35.3 107.3 27.5 106 L 24 103.5 L 22 97.5 L 24.5 93 L 28.5 90 Z " /><path fill="rgb(135,41,255)" stroke="rgb(135,41,255)" stroke-width="1" opacity="1" d="M 57 90 L 65 92 L 67 99.5 L 63.5 105 L 56.5 106 L 52 102.5 Q 54.5 101 51 99.5 L 51 97 Q 53.7 98.1 53 95.5 L 51 95.5 L 54 93.5 Q 51.8 92.3 54.5 91 L 56.5 92 L 57 90 Z " /><path fill="rgb(135,41,255)" stroke="rgb(135,41,255)" stroke-width="1" opacity="1" d="M 93.5 90 L 101 92 L 103 99.5 L 100.5 103 L 99 103.5 L 99.5 105 L 91.5 106 L 88 103.5 L 87 94.5 L 88.5 92 Q 90 94.5 91.5 91 L 93.5 90 Z M 95 91 Q 93 94 96 93 L 95 91 Z " /><path fill="rgb(135,41,255)" stroke="rgb(135,41,255)" stroke-width="1" opacity="1" d="M 164.5 90 L 171 91 L 171 93 Q 173.7 91.9 173 94.5 Q 175.3 95.7 174 100.5 L 170.5 105 L 162 106 Q 163.1 103.3 160.5 104 L 158 98.5 L 160 94.5 Q 157.3 92.7 161.5 91 L 164.5 90 Z M 164 91 L 164 93 L 166 92 L 164 91 Z " /><path fill="rgb(158,90,241)" stroke="rgb(158,90,241)" stroke-width="1" opacity="1" d="M 107.5 71 L 111 71.5 L 107.5 72 L 107.5 71 Z " /><path fill="rgb(158,90,241)" stroke="rgb(158,90,241)" stroke-width="1" opacity="1" d="M 105.5 72 L 104.5 74 L 105.5 72 Z " /><path fill="rgb(158,90,241)" stroke="rgb(158,90,241)" stroke-width="1" opacity="1" d="M 103.5 75 L 104 77.5 L 103 77.5 L 103.5 75 Z " /><path fill="rgb(158,90,241)" stroke="rgb(158,90,241)" stroke-width="1" opacity="1" d="M 121.5 82 L 123 84.5 L 121 85 L 121.5 82 Z " /><path fill="rgb(158,90,241)" stroke="rgb(158,90,241)" stroke-width="1" opacity="1" d="M 40.5 85 L 42.5 88 L 40.5 85 Z " /><path fill="rgb(158,90,241)" stroke="rgb(158,90,241)" stroke-width="1" opacity="1" d="M 140.5 85 L 143.5 89 L 140.5 85 Z " /><path fill="rgb(158,90,241)" stroke="rgb(158,90,241)" stroke-width="1" opacity="1" d="M 28.5 89 L 33 89.5 L 28.5 90 L 28.5 89 Z " /><path fill="rgb(158,90,241)" stroke="rgb(158,90,241)" stroke-width="1" opacity="1" d="M 57.5 89 L 61 89.5 L 57.5 90 L 57.5 89 Z " /><path fill="rgb(158,90,241)" stroke="rgb(158,90,241)" stroke-width="1" opacity="1" d="M 92.5 89 L 97 89.5 L 92.5 90 L 92.5 89 Z " /><path fill="rgb(158,90,241)" stroke="rgb(158,90,241)" stroke-width="1" opacity="1" d="M 128.5 89 L 132 89.5 L 128.5 90 L 128.5 89 Z " /><path fill="rgb(158,90,241)" stroke="rgb(158,90,241)" stroke-width="1" opacity="1" d="M 163.5 89 L 169 89.5 L 163.5 90 L 163.5 89 Z " /><path fill="rgb(158,90,241)" stroke="rgb(158,90,241)" stroke-width="1" opacity="1" d="M 24.5 91 L 23.5 93 L 24.5 91 Z " /><path fill="rgb(158,90,241)" stroke="rgb(158,90,241)" stroke-width="1" opacity="1" d="M 78.5 95 L 79 100.5 L 78 100.5 L 78.5 95 Z " /><path fill="rgb(158,90,241)" stroke="rgb(158,90,241)" stroke-width="1" opacity="1" d="M 121.5 95 L 122 113.5 Q 120.8 116.3 115.5 115 L 115.5 114 Q 120.9 114.6 121 113.5 L 121.5 95 Z " /><path fill="rgb(158,90,241)" stroke="rgb(158,90,241)" stroke-width="1" opacity="1" d="M 146.5 95 L 147 113.5 Q 145.8 116.3 140.5 115 L 140.5 114 Q 145.9 114.6 146 113.5 L 146.5 95 Z " /><path fill="rgb(158,90,241)" stroke="rgb(158,90,241)" stroke-width="1" opacity="1" d="M 103.5 96 L 104 99.5 L 103 99.5 L 103.5 96 Z " /><path fill="rgb(158,90,241)" stroke="rgb(158,90,241)" stroke-width="1" opacity="1" d="M 21.5 97 L 22 99.5 L 21 99.5 L 21.5 97 Z " /><path fill="rgb(158,90,241)" stroke="rgb(158,90,241)" stroke-width="1" opacity="1" d="M 159.5 104 L 160.5 106 L 159.5 104 Z " /><path fill="rgb(158,90,241)" stroke="rgb(158,90,241)" stroke-width="1" opacity="1" d="M 46.5 108 L 48.5 111 L 46.5 108 Z " /><path fill="rgb(158,90,241)" stroke="rgb(158,90,241)" stroke-width="1" opacity="1" d="M 71.5 108 L 69.5 111 L 71.5 108 Z " /><path fill="rgb(158,90,241)" stroke="rgb(158,90,241)" stroke-width="1" opacity="1" d="M 81.5 108 L 83.5 111 L 81.5 108 Z " /><path fill="rgb(158,90,241)" stroke="rgb(158,90,241)" stroke-width="1" opacity="1" d="M 29.5 114 L 32 114.5 L 29.5 115 L 29.5 114 Z " /><path fill="rgb(158,90,241)" stroke="rgb(158,90,241)" stroke-width="1" opacity="1" d="M 57.5 114 L 61 114.5 L 57.5 115 L 57.5 114 Z " /><path fill="rgb(158,90,241)" stroke="rgb(158,90,241)" stroke-width="1" opacity="1" d="M 93.5 114 L 98 114.5 L 93.5 115 L 93.5 114 Z " /><path fill="rgb(158,90,241)" stroke="rgb(158,90,241)" stroke-width="1" opacity="1" d="M 164.5 114 L 167 114.5 L 164.5 115 L 164.5 114 Z " /><path fill="rgb(158,90,241)" stroke="rgb(158,90,241)" stroke-width="1" opacity="1" d="M 175.5 114 L 182 114.5 L 175.5 115 L 175.5 114 Z " /><path fill="rgb(158,90,241)" stroke="rgb(158,90,241)" stroke-width="1" opacity="1" d="M 103.5 119 L 104 121.5 L 103 121.5 L 103.5 119 Z " /><path fill="rgb(252,250,253)" stroke="rgb(252,250,253)" stroke-width="1" opacity="1" d="M 106.5 72 Q 112.8 70.8 114 74.5 L 113 81 L 107.5 82 L 104 79.5 Q 102.8 73.3 106.5 72 Z " /><path fill="rgb(252,250,253)" stroke="rgb(252,250,253)" stroke-width="1" opacity="1" d="M 27.5 82 Q 39.2 81.3 43 88.5 L 37.5 93 Q 35.9 88.1 28.5 89 L 23 92.5 L 21 99.5 L 25.5 106 L 33.5 107 L 38.5 104 L 43 107.5 L 40.5 111 Q 36.3 115.3 26.5 114 Q 20 112.5 17 107.5 Q 14 103.5 14 96.5 Q 15.3 89.8 19.5 86 L 27.5 82 Z " /><path fill="rgb(252,250,253)" stroke="rgb(252,250,253)" stroke-width="1" opacity="1" d="M 56.5 82 Q 67.7 81.8 72 88.5 L 75 94.5 L 75 101.5 Q 73.2 108.7 67.5 112 Q 63.5 115.5 54.5 114 L 45 106.5 Q 42 102.5 43 94.5 Q 44.5 88 49.5 85 L 56.5 82 Z M 58 89 L 55 90 L 50 96 L 50 101 L 56 107 L 64 106 L 68 101 L 67 94 Q 65 89 58 89 Z " /><path fill="rgb(252,250,253)" stroke="rgb(252,250,253)" stroke-width="1" opacity="1" d="M 92.5 82 Q 104.2 81.3 108 88.5 Q 111.2 92.8 111 100.5 Q 109.5 107 104.5 110 L 103 110.5 L 109 114.5 L 111 122.5 Q 109.5 129 104.5 132 Q 99.4 135.4 89.5 134 Q 83 132.5 80 127.5 L 79 120 Q 84.4 118.5 86 121.5 Q 85.5 125.5 88.5 126 Q 91.7 128.3 98.5 127 L 103 123.5 L 104 119.5 L 100.5 115 L 89.5 114 L 81 107.5 Q 77.3 103.2 79 93.5 L 84.5 85 L 92.5 82 Z M 93 89 L 90 90 L 86 95 L 87 104 Q 89 109 99 107 L 104 100 L 103 94 Q 101 88 93 89 Z " /><path fill="rgb(252,250,253)" stroke="rgb(252,250,253)" stroke-width="1" opacity="1" d="M 114 82 L 121 82 Q 119.5 85.7 122.5 85 L 124.5 83 L 133.5 82 Q 141.4 84.1 145 90.5 L 146 93.5 L 146 114 L 139 114 L 139 95.5 L 134.5 90 L 128.5 89 L 122 93.5 L 121 95.5 L 121 114 L 114.5 114 L 114 113.5 L 114 82 Z " /><path fill="rgb(252,250,253)" stroke="rgb(252,250,253)" stroke-width="1" opacity="1" d="M 163.5 82 Q 171.3 81.7 174.5 86 L 175 82 L 181.5 82 L 182 82.5 L 182 114 L 175 114 L 175 111.5 L 173.5 112 Q 169.8 115.3 161.5 114 Q 155.8 112.8 153 108.5 Q 149.1 104.4 150 95.5 Q 151.6 88.6 156.5 85 L 163.5 82 Z M 164 89 L 162 90 L 157 96 Q 156 102 159 105 Q 162 108 170 107 L 175 101 L 174 94 Q 172 88 164 89 Z " /></svg>