<svg version="1.2" xmlns="http://www.w3.org/2000/svg" viewBox="0 0 1512 1512" width="1512" height="1512">
	<title>ITAUCL_Conference-Call-2Q24-pdf-svg</title>
	<defs>
		<clipPath clipPathUnits="userSpaceOnUse" id="cp1">
			<path d="m5200.83-1190.8v5168.33h-9188.14v-5168.33z"/>
		</clipPath>
	</defs>
	<style>
		.s0 { fill: #ffffff } 
		.s1 { fill: #ff6200 } 
	</style>
	<g id="Clip-Path: Page 5" clip-path="url(#cp1)">
		<g id="Page 5">
			<path id="Shape 1" class="s0" d="m1393 570v776h-1298v-776z"/>
			<path id="Path 390" fill-rule="evenodd" class="s1" d="m1458.6 196c31.1 130.7 53.1 339.3 53.1 559.9 0 220.6-22 429.3-53.1 559.5-15.3 74.6-58.9 124.4-142.6 143-136.9 34.5-339.3 53.2-559.9 53.2-220.6 0-423.1-18.7-559.9-53.2-83.8-18.6-127.3-68.4-143.1-143-31.1-130.2-52.7-338.9-52.7-559.5 0-220.6 21.6-429.2 52.7-559.9 15.8-74.1 59.3-124.4 143.1-142.6 136.8-34.4 338.8-53.1 559.9-53.1 220.6 0 422.5 18.7 559.4 53.1 84.2 18.2 127.8 68.5 143.1 142.6zm-369.5 560.9h184.8v-96.2l-184.8 32.5zm-921.7 51.3v378.5h110.6v-378.5zm121.1-102.9c0-38.3-27.3-63.7-65.6-63.7-38.8 0-65.6 25.4-65.6 63.7 0 37.8 26.8 63.1 65.6 63.1 38.3 0 65.6-25.3 65.6-63.1zm294.8 102.9h-96.7v-114.9l-110.6 20.1v94.8h-55.5v86.1h55.5v161.7c0 91.9 47.9 137.9 133.6 137.9 30.6 0 55.9-3.9 68.4-7.2v-84.7c-8.1 2.4-22.5 4.3-39.3 4.3-35.8 0-52.1-17.7-52.1-57.4v-154.6h96.7zm368.9 156c0-108.2-60.8-166.1-168.4-166.1-55.5 0-101.5 9.1-146 25.9v89c43.6-16.8 87.6-27.3 128.3-27.3 51.2 0 79.4 23.5 79.4 64.6-8.6-0.9-23.5-1.9-37.3-1.9-116.8 0-190 48.3-190 130.6 0 71.8 50.2 116.8 129.7 116.8 44.5 0 76.5-18.2 99-48.8l1.5 39.2h103.8zm392.4-156h-111v223c0 46-23.4 75.2-59.8 75.2-36.4 0-56-24.4-56-70.4v-227.8h-111v246c0 86.6 49.7 142.1 127.3 142.1 46.4 0 77.5-16.7 102.4-50.2l1.4 40.7h106.7z"/>
			<path id="Path 391" class="s1" d="m725.4 1070.3c0 30.7 21.1 46 55.5 46 38.3 0 65.6-27.8 65.6-68v-29.6c-5.3-1-19.1-1.5-27.7-1.5-59.9 0-93.4 18.2-93.4 53.1z"/>
		</g>
	</g>
</svg>