<svg version="1.2" xmlns="http://www.w3.org/2000/svg" viewBox="0 0 1543 1543" width="1543" height="1543">
	<title>renner-1-svg</title>
	<style>
		.s0 { fill: #ffffff } 
		.s1 { fill: #e2201d } 
	</style>
	<path id="Shape 1" class="s0" d="m803.6 1423.8c-377.9 0-683.4-304.1-683.4-680.3 0-376.2 305.5-680.2 683.4-680.2 378 0 683.4 304 683.4 680.2 0 376.2-305.4 680.3-683.4 680.3z"/>
	<path id="path189" fill-rule="evenodd" class="s1" d="m771.4 1542.7c-426.6 0-771.4-344.8-771.4-771.3 0-426.6 344.8-771.4 771.4-771.4 426.5 0 771.3 344.8 771.3 771.4 0 426.5-344.8 771.3-771.3 771.3zm-495.5-937.8c0 41.8 38 24.1 38 24.1 74.6-55.7 77.2-103.8 146.8-138.6 52.5-25.9 57.6 28.5 53.8 47.5 1.2 32.9-197.5 629.6-197.5 629.6 0 0-12.6 38.6 43.1 43.7l167 1.9c50.6-5.1 70.9-33 70.9-33 72.8-138.5 137.3-307.5 137.3-307.5 0 0 91.1-205.6 223.4-349.9 25.3-26.6 71.5-31 82.2-4.4 8.3 70.8 20.9 112.6 93.7 124 119.6 20.2 265.8-193 107.6-296.2 0 0-43.1-20.8-86.7-19.6-185.4-3.8-312 236.7-424.6 399.9 26.5-114.5 43-151.2 56.3-270.8 6.3-58.2-18.4-166.4-193-121.5-144.9 34.2-292.4 203.1-318.3 270.8z"/>
</svg>