<svg version="1.2" xmlns="http://www.w3.org/2000/svg" viewBox="0 0 1546 1313" width="1546" height="1313">
	<title>magalu-logo-svg</title>
	<defs>
		<clipPath clipPathUnits="userSpaceOnUse" id="cp1">
			<path d="m0-511.46h16058v2387.6h-16058z"/>
		</clipPath>
	</defs>
	<style>
		.s0 { fill: #0086ff } 
	</style>
	<g id="Clip-Path" clip-path="url(#cp1)">
		<g id="Layer">
			<path id="Layer" class="s0" d="m1457.6 87.6c-5.2-59.4-35.4-87-90-87h-144.2c-46.3 0-79.1 19.7-103.6 62l-352.4 615.5-327.4-616c-21.9-42.3-57.3-61.5-103.8-61.5h-155.5c-54.5 0-84.6 28.1-90 87.5l-90.1 1130.7c-5.4 62.2 24.7 93.4 82.4 93.4h174.5c54.6 0 87.4-28.3 90.1-87.7l38.2-632.9 210.1 392.8c21.8 42.6 57.3 62.1 103.6 62.1h119.7c46.4 0 79.1-16.9 103.6-62.1l237-421.1 27.3 661.4c2.6 59.4 32.7 87.7 87.3 87.7h188.3c57.4 0 87.3-31.2 82.4-93.3z"/>
		</g>
	</g>
</svg>