<svg version="1.2" xmlns="http://www.w3.org/2000/svg" viewBox="0 0 1516 1512" width="1516" height="1512">
	<title>PBR_BIG copy-svg</title>
	<style>
		.s0 { fill: #ffcc31 } 
		.s1 { fill: #008c4f } 
		.s2 { fill: #ffffff } 
	</style>
	<g id="Desk">
		<g id="100---Home-v1">
			<g id="Components/Desk/Menu">
				<g id="Elements/Logo/Color">
					<path id="Fill-1" class="s0" d="m1.2 0.2h1514.2v367.4h-1514.2z"/>
					<path id="Fill-2" fill-rule="evenodd" class="s1" d="m0.7 551h1513.7v960.9h-1513.7z"/>
					<path id="Fill-5" fill-rule="evenodd" class="s2" d="m1199.6 551.5c50.7 0.5 122.9 13.1 150.9 88.2 19.1 52.2 4.5 104.3-15 136.9-17.1 28.5-59.2 72.7-107.8 86.2 25.1 0 55.2 20 57.2 65.1 0.5 13.1 7.5 188.5 7.5 188.5h-152.4l-5.5-156.4c-1.5-18 4.5-60.6-63.7-60.6h-93.2l-60.1 212.5h-163.9l161.8-560.4h-353.8c48.6 0.5 115.3 12 149.3 54.2 41.1 50.1 28.6 112.7 12.1 147.3-3.5 7-29.6 52.6-74.2 73.2 4 1 40.1 24.1 52.1 62.6 17.6 53.7-3 131.4-42.1 164-29.1 24.5-54.1 58.1-197 58.1h-330.8l161.9-559.4h-291.7v-183.9h1514.7v183.9zm-191.4 238.1h121.3c68.6 0 91.2-50.6 91.2-76.2 0-11-2-49.6-58.7-49.6h-119.3c-1 3.5-34.5 125.8-34.5 125.8zm-681.2 206h121.3c68.1 0 79.2-35.1 85.7-46.6 5-9 8-35.1 1-47.6-7.5-12.6-10.5-26.6-64.2-26.6h-108.7zm65.6-228.5h134.9c39.6 0 68.1-25.1 68.1-61.2 0-26.6-22.5-42.6-47.6-42.6h-126.3z"/>
				</g>
			</g>
		</g>
	</g>
</svg>